PSF_US_stride1.mot
nRows=115
nColumns=3

name PSF_US_stride1.mot
datacolumns 3
datarows 115
range 0.328072 1.060937
endheader
time	soleus_l	med_gas_l
        0.3280721000	       35.0603348943	       37.0104411025	
        0.3341489000	       34.2492955913	       36.9475538652	
        0.3401015000	       33.6274098595	       36.5574836029	
        0.3461465000	       33.2171303561	       35.9359496291	
        0.3541607000	       32.9519589191	       35.1495566573	
        0.3600755000	       32.7733581079	       34.2632323486	
        0.3662663000	       32.6662105811	       33.3696309798	
        0.3721392000	       32.6420939363	       32.5885951584	
        0.3800345000	       32.7048182686	       32.0319109737	
        0.3860150000	       32.8263899537	       31.7566447875	
        0.3921257000	       32.9487540557	       31.7398751685	
        0.3981240000	       33.0126226571	       31.8920595351	
        0.4040830000	       32.9945366868	       32.0992857888	
        0.4121628000	       32.9217388955	       32.2674748399	
        0.4179946000	       32.8503204997	       32.3452019946	
        0.4240789000	       32.8236674927	       32.3205568692	
        0.4300644000	       32.8431760266	       32.2043724651	
        0.4360317000	       32.8691476789	       32.0139975629	
        0.4440284000	       32.8452461630	       31.7627935913	
        0.4500909000	       32.7276521487	       31.4551561528	
        0.4560812000	       32.5039078500	       31.0887531173	
        0.4620542000	       32.1961701013	       30.6649862442	
        0.4681506000	       31.8511854956	       30.2015814860	
        0.4760689000	       31.5233423866	       29.7370499710	
        0.4821634000	       31.2575871445	       29.3216665586	
        0.4880979000	       31.0762828619	       28.9981039316	
        0.4940644000	       30.9715911836	       28.7809126682	
        0.5021095000	       30.9054168877	       28.6463794810	
        0.5080190000	       30.8194582274	       28.5406115891	
        0.5140460000	       30.6537304008	       28.4028775918	
        0.5201262000	       30.3651747637	       28.1907148465	
        0.5260671000	       29.9368477522	       27.8930889116	
        0.5341246000	       29.3756137333	       27.5278525242	
        0.5400006000	       28.7043099049	       27.1304966720	
        0.5460086000	       27.9545013872	       26.7446821381	
        0.5521156000	       27.1603693561	       26.4192621382	
        0.5581603000	       26.3515108463	       26.2058257266	
        0.5661352000	       25.5458722578	       26.1461889085	
        0.5721410000	       24.7490302722	       26.2490806824	
        0.5780302000	       23.9651163411	       26.4714286771	
        0.5841436000	       23.2151796330	       26.7232241152	
        0.5901600000	       22.5486312634	       26.8996978414	
        0.5981624000	       22.0350886445	       26.9248753636	
        0.6041124000	       21.7382948034	       26.7834020062	
        0.6100196000	       21.6875327849	       26.5256555984	
        0.6160647000	       21.8641122896	       26.2458078867	
        0.6220675000	       22.2115524700	       26.0438899058	
        0.6301009000	       22.6636219311	       25.9869268331	
        0.6359991000	       23.1721286955	       26.0827065466	
        0.6421552000	       23.7162870791	       26.2761400038	
        0.6482426000	       24.2903146589	       26.4726896361	
        0.6561706000	       24.8836302811	       26.5836927377	
        0.6621009000	       25.4726987881	       26.5755404096	
        0.6680256000	       26.0314909771	       26.4963735644	
        0.6740299000	       26.5497539492	       26.4601145311	
        0.6800251000	       27.0402239130	       26.5903430298	
        0.6881208000	       27.5251547731	       26.9539015185	
        0.6941304000	       28.0122959017	       27.5249952892	
        0.7001162000	       28.4827677178	       28.2014210097	
        0.7072008000	       28.9042891480	       28.8574213532	
        0.7120644000	       29.2598662362	       29.3945032655	
        0.7200510000	       29.5678177295	       29.7620825441	
        0.7259843000	       29.8774362228	       29.9496923692	
        0.7320645000	       30.2447231756	       29.9713991725	
        0.7380454000	       30.7054816404	       29.8579689730	
        0.7440803000	       31.2615548707	       29.6555121607	
        0.7520585000	       31.8848753885	       29.4201805169	
        0.7580459000	       32.5320924842	       29.2040904592	
        0.7641223000	       33.1591711813	       29.0388940122	
        0.7701149000	       33.7327864694	       28.9275365581	
        0.7781706000	       34.2420109697	       28.8493560314	
        0.7840895000	       34.7069880805	       28.7755392521	
        0.7900953000	       35.1697726819	       28.6867836103	
        0.7960808000	       35.6598696838	       28.5845338108	
        0.8020499000	       36.1555605890	       28.4908902063	
        0.8100792000	       36.5808936344	       28.4376819223	
        0.8161281000	       36.8571621175	       28.4496218355	
        0.8220723000	       36.9770257003	       28.5293469694	
        0.8281570000	       37.0371560633	       28.6527210285	
        0.8340114000	       37.1900027603	       28.7786033040	
        0.8421045000	       37.5415038210	       28.8684744052	
        0.8482840000	       38.0704300726	       28.9036980996	
        0.8540195000	       38.6314920564	       28.8889933940	
        0.8600170000	       39.0398363489	       28.8408656370	
        0.8660741000	       39.1745580733	       28.7718591928	
        0.8740913000	       39.0310527959	       28.6854165393	
        0.8800397000	       38.6968920165	       28.5877317123	
        0.8862049000	       38.2828018852	       28.5080139339	
        0.8921835000	       37.8650120923	       28.5084365237	
        0.8982920000	       37.4737308832	       28.6687029867	
        0.9061348000	       37.1186446017	       29.0475915735	
        0.9121527000	       36.8157252305	       29.6439577330	
        0.9181064000	       36.5900081321	       30.3857379442	
        0.9240978000	       36.4590509229	       31.1588588955	
        0.9322649000	       36.4188616042	       31.8597901212	
        0.9380846000	       36.4463927971	       32.4393033905	
        0.9441251000	       36.5150210974	       32.9134566140	
        0.9500856000	       36.6093409038	       33.3412181842	
        0.9561734000	       36.7277224537	       33.7867999432	
        0.9641494000	       36.8707857224	       34.2877592674	
        0.9701374000	       37.0246733622	       34.8413260105	
        0.9761837000	       37.1535518959	       35.4109389377	
        0.9820286000	       37.2105697334	       35.9471283194	
        0.9889185000	       37.1611349882	       36.4118870428	
        0.9970372000	       36.9996840537	       36.7949071160	
        1.0029887000	       36.7456891273	       37.1143230871	
        1.0090413000	       36.4234306247	       37.4014809697	
        1.0149814000	       36.0442257153	       37.6766387264	
        1.0209328000	       35.6066381822	       37.9293982869	
        1.0290316000	       35.1143207136	       38.1185079978	
        1.0349347000	       34.5961341211	       38.1945201220	
        1.0410183000	       34.1099210604	       38.1322129805	
        1.0470618000	       33.7225130233	       37.9520320253	
        1.0549129000	       33.4766892308	       37.7158970041	
        1.0609372000	       33.3667959070	       37.4969112476	
